# xmcd
#
# Track frame offsets:
#	150
#	14937
#	29927
#	49080
#	65860
#	77235
#	92550
#	114527
#	134107
#	148892
#	167127
#	177617
#	195112
#
# Disc length: 2782 seconds
#
# Revision: 3
# Processed by: cddbd v1.5.1PL0 Copyright (c) Steve Scherf et al.
# Submitted via: CDDB.pm 1.12
#
DISCID=ce0adc0d
DTITLE=Jools Holland and his Rhythm and Blues Orchestra - Lift the Lid
DYEAR=1997
DGENRE=
TTITLE0=Start Up
TTITLE1=I'm Gone
TTITLE2=Ghost at My Door
TTITLE3=I'm in a Dancing Mood
TTITLE4=All Fingers and Thumbs
TTITLE5=Green Streak
TTITLE6=Wish I Knew How it Felt to be Free
TTITLE7=Jump for Joy
TTITLE8=Night Life
TTITLE9=Same Old Heart
TTITLE10=Thirteen Bar Boogie 'n' B Natural
TTITLE11=Tempted
TTITLE12=When the Pearly Gates Unfold
EXTD=
EXTT0=
EXTT1=
EXTT2=
EXTT3=
EXTT4=
EXTT5=
EXTT6=
EXTT7=
EXTT8=
EXTT9=
EXTT10=
EXTT11=
EXTT12=
PLAYORDER=
